# xmcd CD database file
#
# Track frame offsets:
#	150
#	14664
#	33261
#	47816
#	63153
#	77416
#	93574
#	117394
#	127185
#	142536
#	165814
#	179423
#	192975
#	204758
#	219398
#
# Disc length: 3106 seconds
#
# Revision: 1
# Processed by: cddbd v1.5.1PL2 Copyright (c) Steve Scherf et al.
# Submitted via: jetAudio 5
#
DISCID=c20c200f
DTITLE=Sensational Alex Harvey Band - The Blues
DYEAR=1900
DGENRE=
TTITLE0=Trouble in Mind
TTITLE1=Honey Bee
TTITLE2=I Learned About Women
TTITLE3=Danger Zone
TTITLE4=The Riddle Song
TTITLE5=Waltzing Mathilda
TTITLE6=Tb Blues
TTITLE7=The Big Rock Candy Mountain
TTITLE8=The Michigan Massacre
TTITLE9=No Piece
TTITLE10=Nobody Knows You When Youre Do
TTITLE11=St. James Infirmary
TTITLE12=Strange Fruit
TTITLE13=Kisses Sweeter Than Wine
TTITLE14=Good God Almighty
EXTD=
EXTT0=
EXTT1=
EXTT2=
EXTT3=
EXTT4=
EXTT5=
EXTT6=
EXTT7=
EXTT8=
EXTT9=
EXTT10=
EXTT11=
EXTT12=
EXTT13=
EXTT14=
PLAYORDER=
